<?xml version="1.0" encoding="UTF-8" standalone="no" ?>
<!DOCTYPE svg PUBLIC "-//W3C//DTD SVG 1.1//EN" "http://www.w3.org/Graphics/SVG/1.1/DTD/svg11.dtd">
<svg xmlns="http://www.w3.org/2000/svg" xmlns:xlink="http://www.w3.org/1999/xlink" version="1.1" width="80" height="80" viewBox="0 0 640 640" xml:space="preserve">
<desc>Created with Fabric.js 5.3.0</desc>
<defs>
</defs>
<g transform="matrix(1.3287576438 0 0 1.3287576438 320 167.0324364942)" id="iAnNlBvg6cxC0xs66_Cop"  >
<path style="stroke: rgb(0,0,0); stroke-width: 12; stroke-dasharray: none; stroke-linecap: butt; stroke-dashoffset: 0; stroke-linejoin: miter; stroke-miterlimit: 4; fill: rgb(255,255,255); fill-opacity: 0; fill-rule: nonzero; opacity: 1;"  transform=" translate(0, 0)" d="M -231.06494 20.33741 C -213.61039 23.66209 -53.19481000000002 20.33741 -53.19481000000002 20.33741 L -29.590950000000017 3.6331399999999974 L -29.590950000000017 3.6331399999999974 C 22.526019999999985 -33.24964 90.54914999999998 -38.957550000000005 148.08380999999997 -11.275770000000003 L 231.06491999999997 28.64911" stroke-linecap="round" />
</g>
<g transform="matrix(1.3287576438 0 0 1.3287576438 311.1646244986 264.0203481681)" id="Tbn2KoJgZ47XjBg_okk-U"  >
<path style="stroke: rgb(0,0,0); stroke-width: 12; stroke-dasharray: none; stroke-linecap: butt; stroke-dashoffset: 0; stroke-linejoin: miter; stroke-miterlimit: 4; fill: rgb(255,255,255); fill-opacity: 0; fill-rule: nonzero; opacity: 1;"  transform=" translate(0, 0)" d="M -220.67532 5.70962 C -203.22077 9.0343 -44.46753000000001 5.70962 -44.46753000000001 5.70962 L -35.56493000000001 -2.58941 L -35.56493000000001 -2.58941 C 15.953299999999992 -50.61488 94.57757000000001 -54.54135 150.62429 -11.887630000000001 L 220.67533 41.42391" stroke-linecap="round" />
</g>
<g transform="matrix(1.3287576438 0 0 1.3287576438 269.1965908667 292.3494780283)" id="eEHYuFntV3e7iBbWjtHzv"  >
<path style="stroke: rgb(0,0,0); stroke-width: 1; stroke-dasharray: none; stroke-linecap: butt; stroke-dashoffset: 0; stroke-linejoin: miter; stroke-miterlimit: 4; fill: rgb(255,255,255); fill-opacity: 0; fill-rule: nonzero; opacity: 1;"  transform=" translate(0, 0)" d="M 0 0 z" stroke-linecap="round" />
</g>
<g transform="matrix(1.3287576438 0 0 1.3287576438 416.0847085782 305.7531029957)" id="on7RxiqTZVBqPYPvm9etJ"  >
<path style="stroke: rgb(0,0,0); stroke-width: 12; stroke-dasharray: none; stroke-linecap: butt; stroke-dashoffset: 0; stroke-linejoin: miter; stroke-miterlimit: 4; fill: rgb(255,255,255); fill-opacity: 0; fill-rule: nonzero; opacity: 1;"  transform=" translate(0, 0)" d="M -123.84416 -23.88604 C -120.86157 -19.6252 -88.12911 -1.9881300000000017 -69.71548 7.270159999999997 L -69.71548 7.270159999999997 C -35.52061 24.463169999999998 3.803839999999994 28.477249999999998 40.76726000000001 18.547769999999996 L 123.84415000000001 -3.769160000000003" stroke-linecap="round" />
</g>
<g transform="matrix(1.3287576438 0 0 1.3287576438 519.7366453964 352.652641485)" id="EUjEc3BZAJR9AcL3-UFRt"  >
<path style="stroke: rgb(0,0,0); stroke-width: 12; stroke-dasharray: none; stroke-linecap: butt; stroke-dashoffset: 0; stroke-linejoin: miter; stroke-miterlimit: 4; fill: rgb(255,255,255); fill-opacity: 0; fill-rule: nonzero; opacity: 1;"  transform=" translate(0, 0)" d="M -3.20146 -24.93506 L -4.7436799999999995 -12.59729 C -5.90593 -3.299289999999999 -4.28996 6.134690000000001 -0.09940999999999978 14.51579 L 5.1102300000000005 24.93506" stroke-linecap="round" />
</g>
<g transform="matrix(1.3287576438 0 0 1.3287576438 531.7131375093 428.1933763631)" id="ZoyrBHyJmIftZIig1ATxV"  >
<path style="stroke: rgb(0,0,0); stroke-width: 12; stroke-dasharray: none; stroke-linecap: butt; stroke-dashoffset: 0; stroke-linejoin: miter; stroke-miterlimit: 4; fill: rgb(255,255,255); fill-opacity: 0; fill-rule: nonzero; opacity: 1;"  transform=" translate(0, 0)" d="M 8.67836 -45.71429 L 6.344899999999999 -43.6245 C -7.383780000000002 -31.329449999999998 -12.256920000000001 -11.921869999999998 -5.964970000000001 5.400260000000003 L 8.67837 45.71428" stroke-linecap="round" />
</g>
<g transform="matrix(1.3287576438 0 0 1.3287576438 312.3902435368 408.5121738944)" id="v51fwM4Abo5KWydOpbh4U"  >
<path style="stroke: rgb(0,0,0); stroke-width: 12; stroke-dasharray: none; stroke-linecap: butt; stroke-dashoffset: 0; stroke-linejoin: miter; stroke-miterlimit: 4; fill: rgb(255,255,255); fill-opacity: 0; fill-rule: nonzero; opacity: 1;"  transform=" translate(0, 0)" d="M 148.38026 -63.47398 L 88.05053999999998 1.6658600000000092 C 58.95775999999998 33.078230000000005 19.155669999999986 52.45628000000001 -23.513930000000016 55.98216000000001 L -112.88849000000002 63.36738000000001 L -112.88849000000002 63.36738000000001 C -123.58091000000002 64.25092000000001 -133.98120000000003 59.59830000000001 -140.44891 51.03809000000001 L -143.71983 46.70893000000001 L -143.71983 46.70893000000001 C -147.52483 41.67290000000001 -149.09879 35.29710000000001 -148.07454 29.06889000000001 C -147.05028000000001 22.84068000000001 -143.51738 17.30473000000001 -138.3 13.75247000000001 L -136.30099 12.39144000000001 L -136.30099 12.39144000000001 C -132.15854000000002 9.57105000000001 -126.95865 8.78653000000001 -122.16848000000002 10.25925000000001 C -117.37832000000002 11.731970000000011 -113.51729000000002 15.30222000000001 -111.67478000000001 19.96267000000001 L -109.30177000000002 25.96498000000001 L -109.30177000000002 25.96498000000001 C -108.36166000000001 28.34290000000001 -108.65956000000001 31.03199000000001 -110.09735000000002 33.14648000000001 C -111.53513000000002 35.260970000000015 -113.92635000000001 36.52668000000001 -116.48336000000002 36.52668000000001 L -130.06129 36.52668000000001" stroke-linecap="round" />
</g>
<g transform="matrix(1.7934353924 0.1884976554 -0.1388929946 1.3214785704 409.898049324 249.0872829358)" id="Y8MUB0kyAR3-lJQssGGWp"  >
<path style="stroke: rgb(0,0,0); stroke-width: 8; stroke-dasharray: none; stroke-linecap: butt; stroke-dashoffset: 0; stroke-linejoin: miter; stroke-miterlimit: 4; fill: rgb(48,70,202); fill-rule: nonzero; opacity: 1;"  transform=" translate(0, 0)" d="M 0 -29.0909 C 16.05818 -29.0909 29.0909 -16.05817 29.0909 0 C 29.0909 16.05818 16.05817 29.0909 0 29.0909 C -16.05818 29.0909 -29.0909 16.05817 -29.0909 0 C -29.0909 -16.05818 -16.05817 -29.0909 0 -29.0909 z" stroke-linecap="round" />
</g>
</svg>